<mxfile host="65bd71144e" pages="1">
    <diagram id="4aA8682Oxr7YlsX3xrEW" name="Page-1">
        <mxGraphModel dx="808" dy="497" grid="1" gridSize="10" guides="1" tooltips="1" connect="1" arrows="1" fold="1" page="1" pageScale="1" pageWidth="827" pageHeight="1169" math="0" shadow="0">
            <root>
                <mxCell id="0"/>
                <mxCell id="1" parent="0"/>
                <mxCell id="asYjwT--wiLLLTKxJUm1-8" value="" style="rounded=0;whiteSpace=wrap;html=1;strokeColor=#767171;fillColor=none;gradientColor=none;strokeWidth=2;" parent="1" vertex="1">
                    <mxGeometry x="40" y="40" width="440" height="400" as="geometry"/>
                </mxCell>
                <mxCell id="asYjwT--wiLLLTKxJUm1-48" value="&lt;font&gt;&lt;b&gt;&lt;i&gt;subnet&lt;/i&gt;&lt;/b&gt;&lt;/font&gt;" style="outlineConnect=0;gradientColor=none;html=1;whiteSpace=wrap;fontSize=12;fontStyle=0;shape=mxgraph.aws4.group;grIcon=mxgraph.aws4.group_subnet;strokeColor=#767171;fillColor=none;verticalAlign=top;align=left;spacingLeft=30;fontColor=#767171;dashed=0;strokeWidth=2;labelBackgroundColor=none;" parent="1" vertex="1">
                    <mxGeometry x="320" y="290" width="140" height="100" as="geometry"/>
                </mxCell>
                <mxCell id="asYjwT--wiLLLTKxJUm1-61" value="" style="rounded=1;arcSize=10;strokeColor=#23A8D4;fillColor=none;gradientColor=none;strokeWidth=2;shadow=0;labelBackgroundColor=none;fontSize=17;fontColor=#FFCD2D;" parent="1" vertex="1">
                    <mxGeometry x="330" y="330" width="120" height="50" as="geometry"/>
                </mxCell>
                <mxCell id="asYjwT--wiLLLTKxJUm1-7" value="&lt;font&gt;&lt;b&gt;&lt;i&gt;subnet&lt;/i&gt;&lt;/b&gt;&lt;/font&gt;" style="outlineConnect=0;gradientColor=none;html=1;whiteSpace=wrap;fontSize=12;fontStyle=0;shape=mxgraph.aws4.group;grIcon=mxgraph.aws4.group_subnet;strokeColor=#767171;fillColor=none;verticalAlign=top;align=left;spacingLeft=30;fontColor=#767171;dashed=0;strokeWidth=2;labelBackgroundColor=none;" parent="1" vertex="1">
                    <mxGeometry x="320" y="70" width="140" height="100" as="geometry"/>
                </mxCell>
                <mxCell id="asYjwT--wiLLLTKxJUm1-3" value="" style="outlineConnect=0;fontColor=#232F3E;gradientColor=none;fillColor=#767171;strokeColor=none;dashed=0;verticalLabelPosition=bottom;verticalAlign=top;align=center;html=1;fontSize=12;fontStyle=0;aspect=fixed;pointerEvents=1;shape=mxgraph.aws4.network_access_control_list;" parent="1" vertex="1">
                    <mxGeometry x="240.5" y="100" width="40" height="40" as="geometry"/>
                </mxCell>
                <mxCell id="asYjwT--wiLLLTKxJUm1-4" value="" style="outlineConnect=0;fontColor=#232F3E;gradientColor=none;gradientDirection=north;fillColor=#767171;strokeColor=#ffffff;dashed=0;verticalLabelPosition=bottom;verticalAlign=top;align=center;html=1;fontSize=12;fontStyle=0;aspect=fixed;shape=mxgraph.aws4.resourceIcon;resIcon=mxgraph.aws4.vpc;" parent="1" vertex="1">
                    <mxGeometry x="40" y="40" width="40" height="40" as="geometry"/>
                </mxCell>
                <mxCell id="asYjwT--wiLLLTKxJUm1-22" style="edgeStyle=orthogonalEdgeStyle;rounded=0;orthogonalLoop=1;jettySize=auto;html=1;strokeColor=#767171;strokeWidth=2;fontSize=12;fontColor=#767171;endArrow=none;endFill=0;labelBackgroundColor=none;" parent="1" source="asYjwT--wiLLLTKxJUm1-9" target="asYjwT--wiLLLTKxJUm1-3" edge="1">
                    <mxGeometry relative="1" as="geometry">
                        <Array as="points">
                            <mxPoint x="220" y="233"/>
                            <mxPoint x="220" y="120"/>
                        </Array>
                    </mxGeometry>
                </mxCell>
                <mxCell id="asYjwT--wiLLLTKxJUm1-9" value="" style="outlineConnect=0;fontColor=#232F3E;gradientColor=none;fillColor=#767171;strokeColor=none;dashed=0;verticalLabelPosition=bottom;verticalAlign=top;align=center;html=1;fontSize=12;fontStyle=0;aspect=fixed;pointerEvents=1;shape=mxgraph.aws4.route_table;" parent="1" vertex="1">
                    <mxGeometry x="155" y="213.5" width="41.05" height="40" as="geometry"/>
                </mxCell>
                <mxCell id="asYjwT--wiLLLTKxJUm1-11" value="" style="outlineConnect=0;dashed=0;verticalLabelPosition=bottom;verticalAlign=top;align=center;html=1;shape=mxgraph.aws3.router;fillColor=#767171;gradientColor=none;strokeColor=#767171;" parent="1" vertex="1">
                    <mxGeometry x="75" y="213.5" width="40" height="40" as="geometry"/>
                </mxCell>
                <mxCell id="asYjwT--wiLLLTKxJUm1-12" value="" style="endArrow=none;html=1;entryX=1;entryY=0.5;entryDx=0;entryDy=0;entryPerimeter=0;strokeColor=#767171;strokeWidth=2;" parent="1" source="asYjwT--wiLLLTKxJUm1-9" target="asYjwT--wiLLLTKxJUm1-11" edge="1">
                    <mxGeometry width="50" height="50" relative="1" as="geometry">
                        <mxPoint x="95" y="463.5" as="sourcePoint"/>
                        <mxPoint x="145" y="413.5" as="targetPoint"/>
                    </mxGeometry>
                </mxCell>
                <mxCell id="asYjwT--wiLLLTKxJUm1-13" value="vpc" style="text;html=1;resizable=0;autosize=1;align=center;verticalAlign=middle;points=[];fillColor=none;strokeColor=none;rounded=0;fontColor=#767171;fontStyle=1" parent="1" vertex="1">
                    <mxGeometry x="85" y="50" width="30" height="20" as="geometry"/>
                </mxCell>
                <mxCell id="asYjwT--wiLLLTKxJUm1-14" value="router" style="text;html=1;resizable=0;autosize=1;align=center;verticalAlign=middle;points=[];fillColor=none;strokeColor=none;rounded=0;fontColor=#767171;fontStyle=1" parent="1" vertex="1">
                    <mxGeometry x="70" y="266.5" width="50" height="20" as="geometry"/>
                </mxCell>
                <mxCell id="asYjwT--wiLLLTKxJUm1-15" value="route table" style="text;html=1;resizable=0;autosize=1;align=center;verticalAlign=middle;points=[];fillColor=none;strokeColor=none;rounded=0;fontColor=#767171;fontStyle=1" parent="1" vertex="1">
                    <mxGeometry x="140.5" y="266.5" width="70" height="20" as="geometry"/>
                </mxCell>
                <mxCell id="asYjwT--wiLLLTKxJUm1-16" value="" style="endArrow=none;html=1;strokeColor=#767171;fontColor=#767171;fontSize=27;spacing=7;strokeWidth=2;" parent="1" edge="1">
                    <mxGeometry width="50" height="50" relative="1" as="geometry">
                        <mxPoint x="521" y="79.5" as="sourcePoint"/>
                        <mxPoint x="561" y="79.5" as="targetPoint"/>
                    </mxGeometry>
                </mxCell>
                <mxCell id="asYjwT--wiLLLTKxJUm1-17" value="" style="endArrow=none;html=1;strokeColor=#23A8D4;fontColor=#767171;fontSize=27;spacing=7;strokeWidth=2;" parent="1" edge="1">
                    <mxGeometry width="50" height="50" relative="1" as="geometry">
                        <mxPoint x="521" y="120" as="sourcePoint"/>
                        <mxPoint x="561" y="120" as="targetPoint"/>
                    </mxGeometry>
                </mxCell>
                <mxCell id="asYjwT--wiLLLTKxJUm1-18" value="&lt;font style=&quot;font-size: 12px&quot;&gt;Preexisting resources&lt;/font&gt;" style="text;html=1;resizable=0;autosize=1;align=center;verticalAlign=middle;points=[];fillColor=none;strokeColor=none;rounded=0;fontSize=12;fontColor=#767171;fontStyle=1" parent="1" vertex="1">
                    <mxGeometry x="570" y="65" width="130" height="20" as="geometry"/>
                </mxCell>
                <mxCell id="asYjwT--wiLLLTKxJUm1-19" value="&lt;font style=&quot;font-size: 12px&quot;&gt;Module resources&lt;/font&gt;" style="text;html=1;resizable=0;autosize=1;align=center;verticalAlign=middle;points=[];fillColor=none;strokeColor=none;rounded=0;fontSize=12;fontColor=#23A8D4;fontStyle=1" parent="1" vertex="1">
                    <mxGeometry x="568" y="106" width="110" height="20" as="geometry"/>
                </mxCell>
                <mxCell id="asYjwT--wiLLLTKxJUm1-20" value="access &lt;br&gt;control list" style="text;html=1;resizable=0;autosize=1;align=center;verticalAlign=middle;points=[];fillColor=none;strokeColor=none;rounded=0;fontColor=#767171;fontStyle=1;labelBackgroundColor=none;" parent="1" vertex="1">
                    <mxGeometry x="225" y="65" width="70" height="30" as="geometry"/>
                </mxCell>
                <mxCell id="asYjwT--wiLLLTKxJUm1-23" style="edgeStyle=orthogonalEdgeStyle;rounded=0;orthogonalLoop=1;jettySize=auto;html=1;strokeColor=#767171;strokeWidth=2;fontSize=12;fontColor=#767171;endArrow=none;endFill=0;" parent="1" source="asYjwT--wiLLLTKxJUm1-3" target="asYjwT--wiLLLTKxJUm1-7" edge="1">
                    <mxGeometry relative="1" as="geometry">
                        <mxPoint x="210.94133935585228" y="150" as="sourcePoint"/>
                        <mxPoint x="252" y="150" as="targetPoint"/>
                    </mxGeometry>
                </mxCell>
                <mxCell id="asYjwT--wiLLLTKxJUm1-47" value="&lt;font&gt;&lt;b&gt;&lt;i&gt;subnet&lt;/i&gt;&lt;/b&gt;&lt;/font&gt;" style="outlineConnect=0;gradientColor=none;html=1;whiteSpace=wrap;fontSize=12;fontStyle=0;shape=mxgraph.aws4.group;grIcon=mxgraph.aws4.group_subnet;strokeColor=#767171;fillColor=none;verticalAlign=top;align=left;spacingLeft=30;fontColor=#767171;dashed=0;strokeWidth=2;labelBackgroundColor=none;" parent="1" vertex="1">
                    <mxGeometry x="320" y="180" width="140" height="100" as="geometry"/>
                </mxCell>
                <mxCell id="asYjwT--wiLLLTKxJUm1-49" value="..." style="text;html=1;resizable=0;autosize=1;align=center;verticalAlign=middle;points=[];fillColor=none;strokeColor=none;rounded=0;labelBackgroundColor=none;fontSize=17;fontColor=#767171;fontStyle=1" parent="1" vertex="1">
                    <mxGeometry x="365" y="400" width="30" height="20" as="geometry"/>
                </mxCell>
                <mxCell id="asYjwT--wiLLLTKxJUm1-51" value="" style="outlineConnect=0;fontColor=#232F3E;gradientColor=none;gradientDirection=north;fillColor=#23A8D4;strokeColor=#ffffff;dashed=0;verticalLabelPosition=bottom;verticalAlign=top;align=center;html=1;fontSize=12;fontStyle=0;aspect=fixed;shape=mxgraph.aws4.resourceIcon;resIcon=mxgraph.aws4.client_vpn;labelBackgroundColor=none;" parent="1" vertex="1">
                    <mxGeometry x="510" y="219.5" width="40" height="40" as="geometry"/>
                </mxCell>
                <mxCell id="asYjwT--wiLLLTKxJUm1-52" value="&lt;font&gt;&lt;b&gt;&lt;i&gt;client subnet&lt;/i&gt;&lt;/b&gt;&lt;/font&gt;" style="outlineConnect=0;gradientColor=none;html=1;whiteSpace=wrap;fontSize=12;fontStyle=0;shape=mxgraph.aws4.group;grIcon=mxgraph.aws4.group_subnet;strokeColor=#23A8D4;fillColor=none;verticalAlign=top;align=left;spacingLeft=30;fontColor=#23A8D4;dashed=0;strokeWidth=2;labelBackgroundColor=none;" parent="1" vertex="1">
                    <mxGeometry x="595" y="160" width="115" height="160" as="geometry"/>
                </mxCell>
                <mxCell id="asYjwT--wiLLLTKxJUm1-58" value="" style="outlineConnect=0;fontColor=#232F3E;gradientColor=none;fillColor=#23A8D4;strokeColor=none;dashed=0;verticalLabelPosition=bottom;verticalAlign=top;align=center;html=1;fontSize=12;fontStyle=0;aspect=fixed;pointerEvents=1;shape=mxgraph.aws4.elastic_network_interface;shadow=0;labelBackgroundColor=none;" parent="1" vertex="1">
                    <mxGeometry x="410" y="334.5" width="30" height="30" as="geometry"/>
                </mxCell>
                <mxCell id="asYjwT--wiLLLTKxJUm1-63" value="" style="pointerEvents=1;shadow=0;dashed=0;html=1;strokeColor=none;labelPosition=center;verticalLabelPosition=bottom;verticalAlign=top;outlineConnect=0;align=center;shape=mxgraph.office.security.lock_protected;fillColor=#23A8D4;labelBackgroundColor=none;fontSize=17;fontColor=#FFCD2D;aspect=fixed;" parent="1" vertex="1">
                    <mxGeometry x="349" y="311" width="20" height="27.37" as="geometry"/>
                </mxCell>
                <mxCell id="asYjwT--wiLLLTKxJUm1-67" value="" style="endArrow=none;html=1;strokeColor=#23A8D4;fontColor=#767171;fontSize=27;spacing=7;strokeWidth=2;edgeStyle=orthogonalEdgeStyle;" parent="1" source="asYjwT--wiLLLTKxJUm1-58" target="asYjwT--wiLLLTKxJUm1-51" edge="1">
                    <mxGeometry width="50" height="50" relative="1" as="geometry">
                        <mxPoint x="531" y="130" as="sourcePoint"/>
                        <mxPoint x="571" y="130" as="targetPoint"/>
                        <Array as="points">
                            <mxPoint x="470" y="354"/>
                            <mxPoint x="470" y="240"/>
                        </Array>
                    </mxGeometry>
                </mxCell>
                <mxCell id="asYjwT--wiLLLTKxJUm1-69" value="" style="pointerEvents=1;shadow=0;dashed=0;html=1;strokeColor=none;fillColor=#767171;labelPosition=center;verticalLabelPosition=bottom;verticalAlign=top;outlineConnect=0;align=center;shape=mxgraph.office.devices.mac_client;labelBackgroundColor=none;fontSize=17;fontColor=#FFCD2D;" parent="1" vertex="1">
                    <mxGeometry x="638" y="198" width="40" height="33" as="geometry"/>
                </mxCell>
                <mxCell id="asYjwT--wiLLLTKxJUm1-70" value="" style="pointerEvents=1;shadow=0;dashed=0;html=1;strokeColor=none;fillColor=#767171;labelPosition=center;verticalLabelPosition=bottom;verticalAlign=top;outlineConnect=0;align=center;shape=mxgraph.office.devices.mac_client;labelBackgroundColor=none;fontSize=17;fontColor=#FFCD2D;" parent="1" vertex="1">
                    <mxGeometry x="638" y="240" width="40" height="33" as="geometry"/>
                </mxCell>
                <mxCell id="asYjwT--wiLLLTKxJUm1-71" value="" style="pointerEvents=1;shadow=0;dashed=0;html=1;strokeColor=none;fillColor=#767171;labelPosition=center;verticalLabelPosition=bottom;verticalAlign=top;outlineConnect=0;align=center;shape=mxgraph.office.devices.mac_client;labelBackgroundColor=none;fontSize=17;fontColor=#FFCD2D;" parent="1" vertex="1">
                    <mxGeometry x="638" y="280" width="40" height="33" as="geometry"/>
                </mxCell>
                <mxCell id="asYjwT--wiLLLTKxJUm1-72" value="" style="endArrow=none;html=1;strokeColor=#23A8D4;fontColor=#767171;fontSize=27;spacing=7;strokeWidth=2;" parent="1" source="asYjwT--wiLLLTKxJUm1-51" target="asYjwT--wiLLLTKxJUm1-52" edge="1">
                    <mxGeometry width="50" height="50" relative="1" as="geometry">
                        <mxPoint x="531" y="130" as="sourcePoint"/>
                        <mxPoint x="571" y="130" as="targetPoint"/>
                    </mxGeometry>
                </mxCell>
                <mxCell id="asYjwT--wiLLLTKxJUm1-74" value="" style="outlineConnect=0;fontColor=#232F3E;gradientColor=none;gradientDirection=north;fillColor=#767171;strokeColor=#ffffff;dashed=0;verticalLabelPosition=bottom;verticalAlign=top;align=center;html=1;fontSize=12;fontStyle=0;aspect=fixed;shape=mxgraph.aws4.resourceIcon;resIcon=mxgraph.aws4.single_sign_on;shadow=0;labelBackgroundColor=none;" parent="1" vertex="1">
                    <mxGeometry x="510.5" y="348.5" width="40" height="40" as="geometry"/>
                </mxCell>
                <mxCell id="asYjwT--wiLLLTKxJUm1-75" value="&lt;font style=&quot;font-size: 12px&quot;&gt;SSO &lt;br&gt;application&lt;/font&gt;" style="text;html=1;resizable=0;autosize=1;align=center;verticalAlign=middle;points=[];fillColor=none;strokeColor=none;rounded=0;fontSize=12;fontColor=#767171;fontStyle=1" parent="1" vertex="1">
                    <mxGeometry x="498" y="400" width="70" height="30" as="geometry"/>
                </mxCell>
                <mxCell id="asYjwT--wiLLLTKxJUm1-76" value="" style="endArrow=none;html=1;strokeColor=#23A8D4;fontColor=#767171;fontSize=27;spacing=7;strokeWidth=2;" parent="1" source="asYjwT--wiLLLTKxJUm1-74" target="asYjwT--wiLLLTKxJUm1-51" edge="1">
                    <mxGeometry width="50" height="50" relative="1" as="geometry">
                        <mxPoint x="560" y="249.5816326530612" as="sourcePoint"/>
                        <mxPoint x="605" y="249.76530612244903" as="targetPoint"/>
                    </mxGeometry>
                </mxCell>
                <mxCell id="asYjwT--wiLLLTKxJUm1-77" value="&lt;font style=&quot;font-size: 12px&quot;&gt;VPN&amp;nbsp;&lt;br&gt;endpoint&lt;br&gt;&lt;/font&gt;" style="text;html=1;resizable=0;autosize=1;align=center;verticalAlign=middle;points=[];fillColor=none;strokeColor=none;rounded=0;fontSize=12;fontColor=#23A8D4;fontStyle=1" parent="1" vertex="1">
                    <mxGeometry x="500" y="180" width="60" height="30" as="geometry"/>
                </mxCell>
                <mxCell id="asYjwT--wiLLLTKxJUm1-78" value="&lt;font style=&quot;font-size: 12px&quot;&gt;interface&lt;br&gt;&lt;/font&gt;" style="text;html=1;resizable=0;autosize=1;align=center;verticalAlign=middle;points=[];fillColor=none;strokeColor=none;rounded=0;fontSize=12;fontColor=#23A8D4;fontStyle=1" parent="1" vertex="1">
                    <mxGeometry x="390" y="360.5" width="60" height="20" as="geometry"/>
                </mxCell>
                <mxCell id="asYjwT--wiLLLTKxJUm1-79" value="&lt;font style=&quot;font-size: 12px&quot;&gt;security &lt;br&gt;group&lt;br&gt;&lt;/font&gt;" style="text;html=1;resizable=0;autosize=1;align=center;verticalAlign=middle;points=[];fillColor=none;strokeColor=none;rounded=0;fontSize=12;fontColor=#23A8D4;fontStyle=1" parent="1" vertex="1">
                    <mxGeometry x="330" y="335.5" width="60" height="30" as="geometry"/>
                </mxCell>
                <mxCell id="asYjwT--wiLLLTKxJUm1-105" value="" style="rounded=1;arcSize=10;strokeColor=#23A8D4;fillColor=none;gradientColor=none;strokeWidth=2;shadow=0;labelBackgroundColor=none;fontSize=17;fontColor=#FFCD2D;" parent="1" vertex="1">
                    <mxGeometry x="330" y="220" width="120" height="50" as="geometry"/>
                </mxCell>
                <mxCell id="asYjwT--wiLLLTKxJUm1-106" value="" style="outlineConnect=0;fontColor=#232F3E;gradientColor=none;fillColor=#23A8D4;strokeColor=none;dashed=0;verticalLabelPosition=bottom;verticalAlign=top;align=center;html=1;fontSize=12;fontStyle=0;aspect=fixed;pointerEvents=1;shape=mxgraph.aws4.elastic_network_interface;shadow=0;labelBackgroundColor=none;" parent="1" vertex="1">
                    <mxGeometry x="410" y="224.5" width="30" height="30" as="geometry"/>
                </mxCell>
                <mxCell id="asYjwT--wiLLLTKxJUm1-107" value="" style="pointerEvents=1;shadow=0;dashed=0;html=1;strokeColor=none;labelPosition=center;verticalLabelPosition=bottom;verticalAlign=top;outlineConnect=0;align=center;shape=mxgraph.office.security.lock_protected;fillColor=#23A8D4;labelBackgroundColor=none;fontSize=17;fontColor=#FFCD2D;aspect=fixed;" parent="1" vertex="1">
                    <mxGeometry x="349" y="201" width="20" height="27.37" as="geometry"/>
                </mxCell>
                <mxCell id="asYjwT--wiLLLTKxJUm1-108" value="&lt;font style=&quot;font-size: 12px&quot;&gt;interface&lt;br&gt;&lt;/font&gt;" style="text;html=1;resizable=0;autosize=1;align=center;verticalAlign=middle;points=[];fillColor=none;strokeColor=none;rounded=0;fontSize=12;fontColor=#23A8D4;fontStyle=1" parent="1" vertex="1">
                    <mxGeometry x="390" y="250.5" width="60" height="20" as="geometry"/>
                </mxCell>
                <mxCell id="asYjwT--wiLLLTKxJUm1-109" value="&lt;font style=&quot;font-size: 12px&quot;&gt;security &lt;br&gt;group&lt;br&gt;&lt;/font&gt;" style="text;html=1;resizable=0;autosize=1;align=center;verticalAlign=middle;points=[];fillColor=none;strokeColor=none;rounded=0;fontSize=12;fontColor=#23A8D4;fontStyle=1" parent="1" vertex="1">
                    <mxGeometry x="330" y="225.5" width="60" height="30" as="geometry"/>
                </mxCell>
                <mxCell id="asYjwT--wiLLLTKxJUm1-110" value="" style="rounded=1;arcSize=10;strokeColor=#23A8D4;fillColor=none;gradientColor=none;strokeWidth=2;shadow=0;labelBackgroundColor=none;fontSize=17;fontColor=#FFCD2D;" parent="1" vertex="1">
                    <mxGeometry x="335" y="110.5" width="120" height="50" as="geometry"/>
                </mxCell>
                <mxCell id="asYjwT--wiLLLTKxJUm1-111" value="" style="outlineConnect=0;fontColor=#232F3E;gradientColor=none;fillColor=#23A8D4;strokeColor=none;dashed=0;verticalLabelPosition=bottom;verticalAlign=top;align=center;html=1;fontSize=12;fontStyle=0;aspect=fixed;pointerEvents=1;shape=mxgraph.aws4.elastic_network_interface;shadow=0;labelBackgroundColor=none;" parent="1" vertex="1">
                    <mxGeometry x="415" y="115" width="30" height="30" as="geometry"/>
                </mxCell>
                <mxCell id="asYjwT--wiLLLTKxJUm1-112" value="" style="pointerEvents=1;shadow=0;dashed=0;html=1;strokeColor=none;labelPosition=center;verticalLabelPosition=bottom;verticalAlign=top;outlineConnect=0;align=center;shape=mxgraph.office.security.lock_protected;fillColor=#23A8D4;labelBackgroundColor=none;fontSize=17;fontColor=#FFCD2D;aspect=fixed;" parent="1" vertex="1">
                    <mxGeometry x="354" y="91.5" width="20" height="27.37" as="geometry"/>
                </mxCell>
                <mxCell id="asYjwT--wiLLLTKxJUm1-113" value="&lt;font style=&quot;font-size: 12px&quot;&gt;interface&lt;br&gt;&lt;/font&gt;" style="text;html=1;resizable=0;autosize=1;align=center;verticalAlign=middle;points=[];fillColor=none;strokeColor=none;rounded=0;fontSize=12;fontColor=#23A8D4;fontStyle=1" parent="1" vertex="1">
                    <mxGeometry x="395" y="141" width="60" height="20" as="geometry"/>
                </mxCell>
                <mxCell id="asYjwT--wiLLLTKxJUm1-114" value="&lt;font style=&quot;font-size: 12px&quot;&gt;security &lt;br&gt;group&lt;br&gt;&lt;/font&gt;" style="text;html=1;resizable=0;autosize=1;align=center;verticalAlign=middle;points=[];fillColor=none;strokeColor=none;rounded=0;fontSize=12;fontColor=#23A8D4;fontStyle=1" parent="1" vertex="1">
                    <mxGeometry x="335" y="116" width="60" height="30" as="geometry"/>
                </mxCell>
                <mxCell id="asYjwT--wiLLLTKxJUm1-115" value="" style="endArrow=none;html=1;strokeColor=#23A8D4;fontColor=#767171;fontSize=27;spacing=7;strokeWidth=2;edgeStyle=orthogonalEdgeStyle;" parent="1" source="asYjwT--wiLLLTKxJUm1-106" target="asYjwT--wiLLLTKxJUm1-51" edge="1">
                    <mxGeometry width="50" height="50" relative="1" as="geometry">
                        <mxPoint x="450" y="364" as="sourcePoint"/>
                        <mxPoint x="520" y="250" as="targetPoint"/>
                        <Array as="points">
                            <mxPoint x="490" y="240"/>
                            <mxPoint x="490" y="240"/>
                        </Array>
                    </mxGeometry>
                </mxCell>
                <mxCell id="asYjwT--wiLLLTKxJUm1-116" value="" style="endArrow=none;html=1;strokeColor=#23A8D4;fontColor=#767171;fontSize=27;spacing=7;strokeWidth=2;edgeStyle=orthogonalEdgeStyle;" parent="1" source="asYjwT--wiLLLTKxJUm1-111" target="asYjwT--wiLLLTKxJUm1-51" edge="1">
                    <mxGeometry width="50" height="50" relative="1" as="geometry">
                        <mxPoint x="450" y="364" as="sourcePoint"/>
                        <mxPoint x="520" y="250" as="targetPoint"/>
                        <Array as="points">
                            <mxPoint x="470" y="130"/>
                            <mxPoint x="470" y="240"/>
                        </Array>
                    </mxGeometry>
                </mxCell>
                <mxCell id="fDonSM83OGkTalOCIAJF-13" value="" style="outlineConnect=0;fontColor=#232F3E;gradientColor=none;fillColor=#767171;strokeColor=none;dashed=0;verticalLabelPosition=bottom;verticalAlign=top;align=center;html=1;fontSize=12;fontStyle=0;aspect=fixed;pointerEvents=1;shape=mxgraph.aws4.network_access_control_list;" parent="1" vertex="1">
                    <mxGeometry x="240" y="211.5" width="40" height="40" as="geometry"/>
                </mxCell>
                <mxCell id="fDonSM83OGkTalOCIAJF-14" value="" style="outlineConnect=0;fontColor=#232F3E;gradientColor=none;fillColor=#767171;strokeColor=none;dashed=0;verticalLabelPosition=bottom;verticalAlign=top;align=center;html=1;fontSize=12;fontStyle=0;aspect=fixed;pointerEvents=1;shape=mxgraph.aws4.network_access_control_list;" parent="1" vertex="1">
                    <mxGeometry x="240" y="320" width="40" height="40" as="geometry"/>
                </mxCell>
                <mxCell id="fDonSM83OGkTalOCIAJF-15" style="rounded=0;orthogonalLoop=1;jettySize=auto;html=1;strokeColor=#767171;strokeWidth=2;fontSize=12;fontColor=#767171;endArrow=none;endFill=0;" parent="1" source="fDonSM83OGkTalOCIAJF-13" target="asYjwT--wiLLLTKxJUm1-47" edge="1">
                    <mxGeometry relative="1" as="geometry">
                        <mxPoint x="290.5" y="130" as="sourcePoint"/>
                        <mxPoint x="330" y="130" as="targetPoint"/>
                    </mxGeometry>
                </mxCell>
                <mxCell id="fDonSM83OGkTalOCIAJF-16" style="rounded=0;orthogonalLoop=1;jettySize=auto;html=1;strokeColor=#767171;strokeWidth=2;fontSize=12;fontColor=#767171;endArrow=none;endFill=0;" parent="1" source="fDonSM83OGkTalOCIAJF-14" target="asYjwT--wiLLLTKxJUm1-48" edge="1">
                    <mxGeometry relative="1" as="geometry">
                        <mxPoint x="290" y="241.26923076923072" as="sourcePoint"/>
                        <mxPoint x="330" y="240.80769230769226" as="targetPoint"/>
                    </mxGeometry>
                </mxCell>
                <mxCell id="fDonSM83OGkTalOCIAJF-17" style="rounded=0;orthogonalLoop=1;jettySize=auto;html=1;strokeColor=#767171;strokeWidth=2;fontSize=12;fontColor=#767171;endArrow=none;endFill=0;labelBackgroundColor=none;edgeStyle=orthogonalEdgeStyle;" parent="1" source="asYjwT--wiLLLTKxJUm1-9" target="fDonSM83OGkTalOCIAJF-14" edge="1">
                    <mxGeometry relative="1" as="geometry">
                        <mxPoint x="205.94133935585228" y="243" as="sourcePoint"/>
                        <mxPoint x="250.5" y="130" as="targetPoint"/>
                        <Array as="points">
                            <mxPoint x="220" y="233"/>
                            <mxPoint x="220" y="340"/>
                        </Array>
                    </mxGeometry>
                </mxCell>
                <mxCell id="fDonSM83OGkTalOCIAJF-18" style="rounded=0;orthogonalLoop=1;jettySize=auto;html=1;strokeColor=#767171;strokeWidth=2;fontSize=12;fontColor=#767171;endArrow=none;endFill=0;labelBackgroundColor=none;" parent="1" source="asYjwT--wiLLLTKxJUm1-9" edge="1">
                    <mxGeometry relative="1" as="geometry">
                        <mxPoint x="205.94133935585228" y="244" as="sourcePoint"/>
                        <mxPoint x="240" y="232.73675643681565" as="targetPoint"/>
                    </mxGeometry>
                </mxCell>
                <mxCell id="fDonSM83OGkTalOCIAJF-19" value="" style="group" parent="1" vertex="1" connectable="0">
                    <mxGeometry x="237.5" y="147.5" width="45" height="45" as="geometry"/>
                </mxCell>
                <mxCell id="fDonSM83OGkTalOCIAJF-12" value="" style="group" parent="fDonSM83OGkTalOCIAJF-19" vertex="1" connectable="0">
                    <mxGeometry width="45" height="45" as="geometry"/>
                </mxCell>
                <mxCell id="fDonSM83OGkTalOCIAJF-4" value="" style="ellipse;whiteSpace=wrap;html=1;aspect=fixed;strokeColor=none;strokeWidth=2;fillColor=#FFFFFF;gradientColor=none;fontSize=12;fontColor=#FFCD2D;" parent="fDonSM83OGkTalOCIAJF-12" vertex="1">
                    <mxGeometry x="2" y="3" width="20" height="20" as="geometry"/>
                </mxCell>
                <mxCell id="fDonSM83OGkTalOCIAJF-5" value="" style="outlineConnect=0;fontColor=#767171;gradientColor=none;strokeColor=#767171;fillColor=none;dashed=0;verticalLabelPosition=bottom;verticalAlign=top;align=center;html=1;fontSize=12;fontStyle=1;aspect=fixed;shape=mxgraph.aws4.resourceIcon;resIcon=mxgraph.aws4.filtering_rule;strokeWidth=1;" parent="fDonSM83OGkTalOCIAJF-12" vertex="1">
                    <mxGeometry width="25" height="25" as="geometry"/>
                </mxCell>
                <mxCell id="fDonSM83OGkTalOCIAJF-8" value="" style="ellipse;whiteSpace=wrap;html=1;aspect=fixed;strokeColor=none;strokeWidth=2;fillColor=#FFFFFF;gradientColor=none;fontSize=12;fontColor=#FFCD2D;" parent="fDonSM83OGkTalOCIAJF-12" vertex="1">
                    <mxGeometry x="12" y="13" width="20" height="20" as="geometry"/>
                </mxCell>
                <mxCell id="fDonSM83OGkTalOCIAJF-9" value="" style="outlineConnect=0;fontColor=#767171;gradientColor=none;strokeColor=#767171;fillColor=none;dashed=0;verticalLabelPosition=bottom;verticalAlign=top;align=center;html=1;fontSize=12;fontStyle=1;aspect=fixed;shape=mxgraph.aws4.resourceIcon;resIcon=mxgraph.aws4.filtering_rule;strokeWidth=1;" parent="fDonSM83OGkTalOCIAJF-12" vertex="1">
                    <mxGeometry x="10" y="10" width="25" height="25" as="geometry"/>
                </mxCell>
                <mxCell id="fDonSM83OGkTalOCIAJF-10" value="" style="ellipse;whiteSpace=wrap;html=1;aspect=fixed;strokeColor=none;strokeWidth=2;fillColor=#FFFFFF;gradientColor=none;fontSize=12;fontColor=#FFCD2D;" parent="fDonSM83OGkTalOCIAJF-12" vertex="1">
                    <mxGeometry x="22" y="23" width="20" height="20" as="geometry"/>
                </mxCell>
                <mxCell id="fDonSM83OGkTalOCIAJF-11" value="" style="outlineConnect=0;fontColor=#767171;gradientColor=none;strokeColor=#767171;fillColor=none;dashed=0;verticalLabelPosition=bottom;verticalAlign=top;align=center;html=1;fontSize=12;fontStyle=1;aspect=fixed;shape=mxgraph.aws4.resourceIcon;resIcon=mxgraph.aws4.filtering_rule;strokeWidth=1;" parent="fDonSM83OGkTalOCIAJF-12" vertex="1">
                    <mxGeometry x="20" y="20" width="25" height="25" as="geometry"/>
                </mxCell>
                <mxCell id="fDonSM83OGkTalOCIAJF-20" value="" style="group" parent="1" vertex="1" connectable="0">
                    <mxGeometry x="238" y="263.5" width="45" height="45" as="geometry"/>
                </mxCell>
                <mxCell id="fDonSM83OGkTalOCIAJF-21" value="" style="group" parent="fDonSM83OGkTalOCIAJF-20" vertex="1" connectable="0">
                    <mxGeometry width="45" height="45" as="geometry"/>
                </mxCell>
                <mxCell id="fDonSM83OGkTalOCIAJF-22" value="" style="ellipse;whiteSpace=wrap;html=1;aspect=fixed;strokeColor=none;strokeWidth=2;fillColor=#FFFFFF;gradientColor=none;fontSize=12;fontColor=#FFCD2D;" parent="fDonSM83OGkTalOCIAJF-21" vertex="1">
                    <mxGeometry x="2" y="3" width="20" height="20" as="geometry"/>
                </mxCell>
                <mxCell id="fDonSM83OGkTalOCIAJF-23" value="" style="outlineConnect=0;fontColor=#767171;gradientColor=none;strokeColor=#767171;fillColor=none;dashed=0;verticalLabelPosition=bottom;verticalAlign=top;align=center;html=1;fontSize=12;fontStyle=1;aspect=fixed;shape=mxgraph.aws4.resourceIcon;resIcon=mxgraph.aws4.filtering_rule;strokeWidth=1;" parent="fDonSM83OGkTalOCIAJF-21" vertex="1">
                    <mxGeometry width="25" height="25" as="geometry"/>
                </mxCell>
                <mxCell id="fDonSM83OGkTalOCIAJF-24" value="" style="ellipse;whiteSpace=wrap;html=1;aspect=fixed;strokeColor=none;strokeWidth=2;fillColor=#FFFFFF;gradientColor=none;fontSize=12;fontColor=#FFCD2D;" parent="fDonSM83OGkTalOCIAJF-21" vertex="1">
                    <mxGeometry x="12" y="13" width="20" height="20" as="geometry"/>
                </mxCell>
                <mxCell id="fDonSM83OGkTalOCIAJF-25" value="" style="outlineConnect=0;fontColor=#767171;gradientColor=none;strokeColor=#767171;fillColor=none;dashed=0;verticalLabelPosition=bottom;verticalAlign=top;align=center;html=1;fontSize=12;fontStyle=1;aspect=fixed;shape=mxgraph.aws4.resourceIcon;resIcon=mxgraph.aws4.filtering_rule;strokeWidth=1;" parent="fDonSM83OGkTalOCIAJF-21" vertex="1">
                    <mxGeometry x="10" y="10" width="25" height="25" as="geometry"/>
                </mxCell>
                <mxCell id="fDonSM83OGkTalOCIAJF-26" value="" style="ellipse;whiteSpace=wrap;html=1;aspect=fixed;strokeColor=none;strokeWidth=2;fillColor=#FFFFFF;gradientColor=none;fontSize=12;fontColor=#FFCD2D;" parent="fDonSM83OGkTalOCIAJF-21" vertex="1">
                    <mxGeometry x="22" y="23" width="20" height="20" as="geometry"/>
                </mxCell>
                <mxCell id="fDonSM83OGkTalOCIAJF-27" value="" style="outlineConnect=0;fontColor=#767171;gradientColor=none;strokeColor=#767171;fillColor=none;dashed=0;verticalLabelPosition=bottom;verticalAlign=top;align=center;html=1;fontSize=12;fontStyle=1;aspect=fixed;shape=mxgraph.aws4.resourceIcon;resIcon=mxgraph.aws4.filtering_rule;strokeWidth=1;" parent="fDonSM83OGkTalOCIAJF-21" vertex="1">
                    <mxGeometry x="20" y="20" width="25" height="25" as="geometry"/>
                </mxCell>
                <mxCell id="fDonSM83OGkTalOCIAJF-28" value="" style="group" parent="1" vertex="1" connectable="0">
                    <mxGeometry x="237" y="370.5" width="45" height="45" as="geometry"/>
                </mxCell>
                <mxCell id="fDonSM83OGkTalOCIAJF-29" value="" style="group" parent="fDonSM83OGkTalOCIAJF-28" vertex="1" connectable="0">
                    <mxGeometry width="45" height="45" as="geometry"/>
                </mxCell>
                <mxCell id="fDonSM83OGkTalOCIAJF-30" value="" style="ellipse;whiteSpace=wrap;html=1;aspect=fixed;strokeColor=none;strokeWidth=2;fillColor=#FFFFFF;gradientColor=none;fontSize=12;fontColor=#FFCD2D;" parent="fDonSM83OGkTalOCIAJF-29" vertex="1">
                    <mxGeometry x="2" y="3" width="20" height="20" as="geometry"/>
                </mxCell>
                <mxCell id="fDonSM83OGkTalOCIAJF-31" value="" style="outlineConnect=0;fontColor=#767171;gradientColor=none;strokeColor=#767171;fillColor=none;dashed=0;verticalLabelPosition=bottom;verticalAlign=top;align=center;html=1;fontSize=12;fontStyle=1;aspect=fixed;shape=mxgraph.aws4.resourceIcon;resIcon=mxgraph.aws4.filtering_rule;strokeWidth=1;" parent="fDonSM83OGkTalOCIAJF-29" vertex="1">
                    <mxGeometry width="25" height="25" as="geometry"/>
                </mxCell>
                <mxCell id="fDonSM83OGkTalOCIAJF-32" value="" style="ellipse;whiteSpace=wrap;html=1;aspect=fixed;strokeColor=none;strokeWidth=2;fillColor=#FFFFFF;gradientColor=none;fontSize=12;fontColor=#FFCD2D;" parent="fDonSM83OGkTalOCIAJF-29" vertex="1">
                    <mxGeometry x="12" y="13" width="20" height="20" as="geometry"/>
                </mxCell>
                <mxCell id="fDonSM83OGkTalOCIAJF-33" value="" style="outlineConnect=0;fontColor=#767171;gradientColor=none;strokeColor=#767171;fillColor=none;dashed=0;verticalLabelPosition=bottom;verticalAlign=top;align=center;html=1;fontSize=12;fontStyle=1;aspect=fixed;shape=mxgraph.aws4.resourceIcon;resIcon=mxgraph.aws4.filtering_rule;strokeWidth=1;" parent="fDonSM83OGkTalOCIAJF-29" vertex="1">
                    <mxGeometry x="10" y="10" width="25" height="25" as="geometry"/>
                </mxCell>
                <mxCell id="fDonSM83OGkTalOCIAJF-34" value="" style="ellipse;whiteSpace=wrap;html=1;aspect=fixed;strokeColor=none;strokeWidth=2;fillColor=#FFFFFF;gradientColor=none;fontSize=12;fontColor=#FFCD2D;" parent="fDonSM83OGkTalOCIAJF-29" vertex="1">
                    <mxGeometry x="22" y="23" width="20" height="20" as="geometry"/>
                </mxCell>
                <mxCell id="fDonSM83OGkTalOCIAJF-35" value="" style="outlineConnect=0;fontColor=#767171;gradientColor=none;strokeColor=#767171;fillColor=none;dashed=0;verticalLabelPosition=bottom;verticalAlign=top;align=center;html=1;fontSize=12;fontStyle=1;aspect=fixed;shape=mxgraph.aws4.resourceIcon;resIcon=mxgraph.aws4.filtering_rule;strokeWidth=1;" parent="fDonSM83OGkTalOCIAJF-29" vertex="1">
                    <mxGeometry x="20" y="20" width="25" height="25" as="geometry"/>
                </mxCell>
                <mxCell id="fDonSM83OGkTalOCIAJF-36" style="rounded=0;orthogonalLoop=1;jettySize=auto;html=1;strokeColor=#767171;strokeWidth=2;fontSize=12;fontColor=#767171;endArrow=none;endFill=0;labelBackgroundColor=none;" parent="1" source="fDonSM83OGkTalOCIAJF-9" target="asYjwT--wiLLLTKxJUm1-3" edge="1">
                    <mxGeometry relative="1" as="geometry">
                        <mxPoint x="205.94133935585228" y="243" as="sourcePoint"/>
                        <mxPoint x="250.5" y="130" as="targetPoint"/>
                    </mxGeometry>
                </mxCell>
                <mxCell id="fDonSM83OGkTalOCIAJF-37" style="rounded=0;orthogonalLoop=1;jettySize=auto;html=1;strokeColor=#767171;strokeWidth=2;fontSize=12;fontColor=#767171;endArrow=none;endFill=0;labelBackgroundColor=none;" parent="1" source="fDonSM83OGkTalOCIAJF-25" target="fDonSM83OGkTalOCIAJF-13" edge="1">
                    <mxGeometry relative="1" as="geometry">
                        <mxPoint x="270.125" y="167.5" as="sourcePoint"/>
                        <mxPoint x="270.29999999999995" y="150" as="targetPoint"/>
                    </mxGeometry>
                </mxCell>
                <mxCell id="fDonSM83OGkTalOCIAJF-38" style="rounded=0;orthogonalLoop=1;jettySize=auto;html=1;strokeColor=#767171;strokeWidth=2;fontSize=12;fontColor=#767171;endArrow=none;endFill=0;labelBackgroundColor=none;" parent="1" source="fDonSM83OGkTalOCIAJF-33" target="fDonSM83OGkTalOCIAJF-14" edge="1">
                    <mxGeometry relative="1" as="geometry">
                        <mxPoint x="270.3853211009175" y="283.5" as="sourcePoint"/>
                        <mxPoint x="270.18348623853217" y="261.5" as="targetPoint"/>
                    </mxGeometry>
                </mxCell>
                <mxCell id="fDonSM83OGkTalOCIAJF-64" value="" style="endArrow=none;html=1;strokeColor=#23A8D4;fontColor=#767171;fontSize=27;spacing=7;strokeWidth=2;entryX=0.75;entryY=0;entryDx=0;entryDy=0;" parent="1" target="asYjwT--wiLLLTKxJUm1-110" edge="1">
                    <mxGeometry width="50" height="50" relative="1" as="geometry">
                        <mxPoint x="425" y="96" as="sourcePoint"/>
                        <mxPoint x="571" y="130" as="targetPoint"/>
                    </mxGeometry>
                </mxCell>
                <mxCell id="fDonSM83OGkTalOCIAJF-67" value="" style="endArrow=none;html=1;strokeColor=#23A8D4;fontColor=#767171;fontSize=27;spacing=7;strokeWidth=2;exitX=0.75;exitY=0;exitDx=0;exitDy=0;" parent="1" source="asYjwT--wiLLLTKxJUm1-105" edge="1">
                    <mxGeometry width="50" height="50" relative="1" as="geometry">
                        <mxPoint x="531" y="130" as="sourcePoint"/>
                        <mxPoint x="419.5" y="207.5" as="targetPoint"/>
                    </mxGeometry>
                </mxCell>
                <mxCell id="fDonSM83OGkTalOCIAJF-68" value="" style="endArrow=none;html=1;strokeColor=#23A8D4;fontColor=#767171;fontSize=27;spacing=7;strokeWidth=2;exitX=0.75;exitY=0;exitDx=0;exitDy=0;" parent="1" source="asYjwT--wiLLLTKxJUm1-61" edge="1">
                    <mxGeometry width="50" height="50" relative="1" as="geometry">
                        <mxPoint x="430" y="230" as="sourcePoint"/>
                        <mxPoint x="420.2641509433963" y="316" as="targetPoint"/>
                    </mxGeometry>
                </mxCell>
                <mxCell id="fDonSM83OGkTalOCIAJF-69" value="" style="outlineConnect=0;fontColor=#232F3E;gradientColor=none;gradientDirection=north;fillColor=#767171;strokeColor=#ffffff;dashed=0;verticalLabelPosition=bottom;verticalAlign=top;align=center;html=1;fontSize=12;fontStyle=0;aspect=fixed;shape=mxgraph.aws4.resourceIcon;resIcon=mxgraph.aws4.cloudtrail;shadow=0;labelBackgroundColor=none;" parent="1" vertex="1">
                    <mxGeometry x="600" y="348.5" width="40" height="40" as="geometry"/>
                </mxCell>
                <mxCell id="fDonSM83OGkTalOCIAJF-70" value="Cloudtrail" style="text;html=1;resizable=0;autosize=1;align=center;verticalAlign=middle;points=[];fillColor=none;strokeColor=none;rounded=0;fontSize=12;fontColor=#767171;fontStyle=1" parent="1" vertex="1">
                    <mxGeometry x="588" y="400.5" width="70" height="20" as="geometry"/>
                </mxCell>
                <mxCell id="fDonSM83OGkTalOCIAJF-73" value="" style="endArrow=none;html=1;strokeColor=#23A8D4;fontColor=#767171;fontSize=27;spacing=7;strokeWidth=2;edgeStyle=orthogonalEdgeStyle;" parent="1" source="fDonSM83OGkTalOCIAJF-69" target="asYjwT--wiLLLTKxJUm1-51" edge="1">
                    <mxGeometry width="50" height="50" relative="1" as="geometry">
                        <mxPoint x="542.1124031007753" y="358.5" as="sourcePoint"/>
                        <mxPoint x="540.3875968992247" y="269.5" as="targetPoint"/>
                        <Array as="points">
                            <mxPoint x="620" y="330"/>
                            <mxPoint x="530" y="330"/>
                        </Array>
                    </mxGeometry>
                </mxCell>
                <mxCell id="12" value="" style="group" vertex="1" connectable="0" parent="1">
                    <mxGeometry x="413" y="75.5" width="35" height="35" as="geometry"/>
                </mxCell>
                <mxCell id="3" value="" style="group" vertex="1" connectable="0" parent="12">
                    <mxGeometry width="25" height="25" as="geometry"/>
                </mxCell>
                <mxCell id="4" value="" style="ellipse;whiteSpace=wrap;html=1;aspect=fixed;strokeColor=none;strokeWidth=2;fillColor=#FFFFFF;gradientColor=none;fontSize=12;fontColor=#FFCD2D;" vertex="1" parent="3">
                    <mxGeometry x="3" y="3" width="20" height="20" as="geometry"/>
                </mxCell>
                <mxCell id="5" value="" style="outlineConnect=0;fontColor=#FFCD2D;gradientColor=none;strokeColor=#23A8D4;fillColor=none;dashed=0;verticalLabelPosition=bottom;verticalAlign=top;align=center;html=1;fontSize=12;fontStyle=1;aspect=fixed;shape=mxgraph.aws4.resourceIcon;resIcon=mxgraph.aws4.filtering_rule;strokeWidth=1;" vertex="1" parent="3">
                    <mxGeometry width="25" height="25" as="geometry"/>
                </mxCell>
                <mxCell id="6" value="" style="group" vertex="1" connectable="0" parent="12">
                    <mxGeometry x="10" y="10" width="25" height="25" as="geometry"/>
                </mxCell>
                <mxCell id="7" value="" style="ellipse;whiteSpace=wrap;html=1;aspect=fixed;strokeColor=none;strokeWidth=2;fillColor=#FFFFFF;gradientColor=none;fontSize=12;fontColor=#FFCD2D;" vertex="1" parent="6">
                    <mxGeometry x="3" y="3" width="20" height="20" as="geometry"/>
                </mxCell>
                <mxCell id="8" value="" style="outlineConnect=0;fontColor=#FFCD2D;gradientColor=none;strokeColor=#23A8D4;fillColor=none;dashed=0;verticalLabelPosition=bottom;verticalAlign=top;align=center;html=1;fontSize=12;fontStyle=1;aspect=fixed;shape=mxgraph.aws4.resourceIcon;resIcon=mxgraph.aws4.filtering_rule;strokeWidth=1;" vertex="1" parent="6">
                    <mxGeometry width="25" height="25" as="geometry"/>
                </mxCell>
                <mxCell id="13" value="" style="group" vertex="1" connectable="0" parent="1">
                    <mxGeometry x="407" y="185" width="35" height="35" as="geometry"/>
                </mxCell>
                <mxCell id="14" value="" style="group" vertex="1" connectable="0" parent="13">
                    <mxGeometry width="25" height="25" as="geometry"/>
                </mxCell>
                <mxCell id="15" value="" style="ellipse;whiteSpace=wrap;html=1;aspect=fixed;strokeColor=none;strokeWidth=2;fillColor=#FFFFFF;gradientColor=none;fontSize=12;fontColor=#FFCD2D;" vertex="1" parent="14">
                    <mxGeometry x="3" y="3" width="20" height="20" as="geometry"/>
                </mxCell>
                <mxCell id="16" value="" style="outlineConnect=0;fontColor=#FFCD2D;gradientColor=none;strokeColor=#23A8D4;fillColor=none;dashed=0;verticalLabelPosition=bottom;verticalAlign=top;align=center;html=1;fontSize=12;fontStyle=1;aspect=fixed;shape=mxgraph.aws4.resourceIcon;resIcon=mxgraph.aws4.filtering_rule;strokeWidth=1;" vertex="1" parent="14">
                    <mxGeometry width="25" height="25" as="geometry"/>
                </mxCell>
                <mxCell id="17" value="" style="group" vertex="1" connectable="0" parent="13">
                    <mxGeometry x="10" y="10" width="25" height="25" as="geometry"/>
                </mxCell>
                <mxCell id="18" value="" style="ellipse;whiteSpace=wrap;html=1;aspect=fixed;strokeColor=none;strokeWidth=2;fillColor=#FFFFFF;gradientColor=none;fontSize=12;fontColor=#FFCD2D;" vertex="1" parent="17">
                    <mxGeometry x="3" y="3" width="20" height="20" as="geometry"/>
                </mxCell>
                <mxCell id="19" value="" style="outlineConnect=0;fontColor=#FFCD2D;gradientColor=none;strokeColor=#23A8D4;fillColor=none;dashed=0;verticalLabelPosition=bottom;verticalAlign=top;align=center;html=1;fontSize=12;fontStyle=1;aspect=fixed;shape=mxgraph.aws4.resourceIcon;resIcon=mxgraph.aws4.filtering_rule;strokeWidth=1;" vertex="1" parent="17">
                    <mxGeometry width="25" height="25" as="geometry"/>
                </mxCell>
                <mxCell id="20" value="" style="group" vertex="1" connectable="0" parent="1">
                    <mxGeometry x="408" y="293" width="35" height="35" as="geometry"/>
                </mxCell>
                <mxCell id="21" value="" style="group" vertex="1" connectable="0" parent="20">
                    <mxGeometry width="25" height="25" as="geometry"/>
                </mxCell>
                <mxCell id="22" value="" style="ellipse;whiteSpace=wrap;html=1;aspect=fixed;strokeColor=none;strokeWidth=2;fillColor=#FFFFFF;gradientColor=none;fontSize=12;fontColor=#FFCD2D;" vertex="1" parent="21">
                    <mxGeometry x="3" y="3" width="20" height="20" as="geometry"/>
                </mxCell>
                <mxCell id="23" value="" style="outlineConnect=0;fontColor=#FFCD2D;gradientColor=none;strokeColor=#23A8D4;fillColor=none;dashed=0;verticalLabelPosition=bottom;verticalAlign=top;align=center;html=1;fontSize=12;fontStyle=1;aspect=fixed;shape=mxgraph.aws4.resourceIcon;resIcon=mxgraph.aws4.filtering_rule;strokeWidth=1;" vertex="1" parent="21">
                    <mxGeometry width="25" height="25" as="geometry"/>
                </mxCell>
                <mxCell id="24" value="" style="group" vertex="1" connectable="0" parent="20">
                    <mxGeometry x="10" y="10" width="25" height="25" as="geometry"/>
                </mxCell>
                <mxCell id="25" value="" style="ellipse;whiteSpace=wrap;html=1;aspect=fixed;strokeColor=none;strokeWidth=2;fillColor=#FFFFFF;gradientColor=none;fontSize=12;fontColor=#FFCD2D;" vertex="1" parent="24">
                    <mxGeometry x="3" y="3" width="20" height="20" as="geometry"/>
                </mxCell>
                <mxCell id="26" value="" style="outlineConnect=0;fontColor=#FFCD2D;gradientColor=none;strokeColor=#23A8D4;fillColor=none;dashed=0;verticalLabelPosition=bottom;verticalAlign=top;align=center;html=1;fontSize=12;fontStyle=1;aspect=fixed;shape=mxgraph.aws4.resourceIcon;resIcon=mxgraph.aws4.filtering_rule;strokeWidth=1;" vertex="1" parent="24">
                    <mxGeometry width="25" height="25" as="geometry"/>
                </mxCell>
            </root>
        </mxGraphModel>
    </diagram>
</mxfile>